<svg width="1200" height="320" viewBox="0 0 1200 320" fill="none" xmlns="http://www.w3.org/2000/svg" role="img" aria-label="MCPANEL - Terminal Minecraft Server Manager">
  <defs>
    <linearGradient id="bg" x1="0" y1="0" x2="1" y2="1">
      <stop offset="0" stop-color="#0d1117"/>
      <stop offset="1" stop-color="#10231a"/>
    </linearGradient>
    <linearGradient id="title" x1="0" y1="0" x2="1" y2="0">
      <stop offset="0" stop-color="#5eead4"/>
      <stop offset="0.5" stop-color="#34d399"/>
      <stop offset="1" stop-color="#22c55e"/>
    </linearGradient>
  </defs>

  <!-- backdrop -->
  <rect width="1200" height="320" rx="18" fill="url(#bg)"/>
  <rect x="1" y="1" width="1198" height="318" rx="17" fill="none" stroke="#1f6f4d" stroke-opacity="0.5"/>

  <!-- terminal traffic lights -->
  <circle cx="42" cy="40" r="8" fill="#ff5f56"/>
  <circle cx="68" cy="40" r="8" fill="#ffbd2e"/>
  <circle cx="94" cy="40" r="8" fill="#27c93f"/>
  <text x="120" y="46" font-family="'JetBrains Mono','Fira Code',Consolas,monospace" font-size="16" fill="#7d8590">mcpanel — minecraft server manager</text>

  <!-- creeper face accent -->
  <g transform="translate(70,110)">
    <rect width="150" height="150" rx="8" fill="#22c55e"/>
    <rect width="150" height="150" rx="8" fill="#000000" opacity="0.08"/>
    <rect x="28"  y="36" width="34" height="34" fill="#0d1117"/>
    <rect x="88"  y="36" width="34" height="34" fill="#0d1117"/>
    <rect x="58"  y="74" width="34" height="40" fill="#0d1117"/>
    <rect x="28"  y="100" width="30" height="34" fill="#0d1117"/>
    <rect x="92"  y="100" width="30" height="34" fill="#0d1117"/>
  </g>

  <!-- title -->
  <text x="270" y="170" font-family="'Segoe UI',Arial,sans-serif" font-size="96" font-weight="800" letter-spacing="6" fill="url(#title)">MCPANEL</text>
  <text x="274" y="212" font-family="'JetBrains Mono','Fira Code',Consolas,monospace" font-size="24" fill="#9ca3af">Terminal Minecraft Server Manager</text>

  <!-- prompt line -->
  <text x="274" y="262" font-family="'JetBrains Mono','Fira Code',Consolas,monospace" font-size="22" fill="#34d399">mcpanel&gt; <tspan fill="#e5e7eb">/start</tspan> <tspan fill="#6b7280">·</tspan> <tspan fill="#e5e7eb">/log</tspan> <tspan fill="#6b7280">·</tspan> <tspan fill="#e5e7eb">/backup</tspan> <tspan fill="#6b7280">·</tspan> <tspan fill="#e5e7eb">/tunnel</tspan></text>

  <!-- neofetch palette strip -->
  <g transform="translate(274,286)">
    <rect x="0"   y="0" width="34" height="16" fill="#ef4444"/>
    <rect x="34"  y="0" width="34" height="16" fill="#eab308"/>
    <rect x="68"  y="0" width="34" height="16" fill="#22c55e"/>
    <rect x="102" y="0" width="34" height="16" fill="#06b6d4"/>
    <rect x="136" y="0" width="34" height="16" fill="#3b82f6"/>
    <rect x="170" y="0" width="34" height="16" fill="#a855f7"/>
    <rect x="204" y="0" width="34" height="16" fill="#e5e7eb"/>
  </g>
</svg>
